<svg height="512pt" viewBox="0 0 512.13532 512" width="512pt" xmlns="http://www.w3.org/2000/svg"><path d="m237.792969 309.03125c11.003906-19.777344 26.707031-36.546875 45.726562-48.816406 40.097657-25.792969 90.730469-28.867188 133.652344-8.109375 42.921875 20.757812 71.949219 62.355469 76.621094 109.804687.433593 4.429688.636719 8.878906.621093 13.328125.007813 54.371094-32.1875 103.585938-82.011718 125.355469-39.929688 17.492188-85.816406 14.867188-123.496094-7.0625" fill="#2fa8cc"/><path d="m289.699219 502.445312c.257812 2.46875-.546875 4.929688-2.21875 6.765626-1.667969 1.835937-4.039063 2.875-6.519531 2.855468h-192.617188c-2.484375.007813-4.859375-1.03125-6.539062-2.863281-1.679688-1.828125-2.507813-4.28125-2.289063-6.757813l16.15625-185.378906c.417969-4.558594 4.246094-8.046875 8.824219-8.035156h160.3125c4.566406.019531 8.378906 3.488281 8.824218 8.035156l1.503907 17.476563 13.769531 158.988281zm0 0" fill="#e4c05c"/><path d="m219.957031 362c-4.875 0-8.828125-3.953125-8.828125-8.828125v-70.621094c0-14.625-11.859375-26.484375-26.484375-26.484375s-26.480469 11.859375-26.480469 26.484375v70.621094c0 4.875-3.953124 8.828125-8.828124 8.828125s-8.828126-3.953125-8.828126-8.828125v-70.621094c0-24.378906 19.761719-44.136719 44.136719-44.136719 24.378907 0 44.140625 19.757813 44.140625 44.136719v70.621094c0 4.875-3.953125 8.828125-8.828125 8.828125zm0 0" fill="#cb8252"/><path d="m166.992188 370.828125c0 9.75-7.90625 17.652344-17.65625 17.652344s-17.65625-7.902344-17.65625-17.652344c0-9.753906 7.90625-17.65625 17.65625-17.65625s17.65625 7.902344 17.65625 17.65625zm0 0" fill="#805333"/><path d="m237.613281 370.828125c0 9.75-7.90625 17.652344-17.65625 17.652344s-17.65625-7.902344-17.65625-17.652344c0-9.753906 7.90625-17.65625 17.65625-17.65625s17.65625 7.902344 17.65625 17.65625zm0 0" fill="#805333"/><path d="m122.851562 485.585938h-8.828124c-4.875 0-8.828126-3.953126-8.828126-8.828126s3.953126-8.828124 8.828126-8.828124h8.828124c4.875 0 8.828126 3.953124 8.828126 8.828124s-3.953126 8.828126-8.828126 8.828126zm0 0" fill="#f9eab0"/><path d="m211.128906 485.585938h-52.964844c-4.875 0-8.828124-3.953126-8.828124-8.828126s3.953124-8.828124 8.828124-8.828124h52.964844c4.875 0 8.828125 3.953124 8.828125 8.828124s-3.953125 8.828126-8.828125 8.828126zm0 0" fill="#f9eab0"/><g fill="#71c285"><path d="m275.136719 334.542969-1.503907-17.476563c-.445312-4.546875-4.257812-8.015625-8.824218-8.035156h-27.015625c11.003906-19.777344 26.707031-36.546875 45.726562-48.816406 10.578125 4.683594 19.476563 12.472656 25.511719 22.335937 8.652344 17.300781-8.207031 34.691407-33.894531 51.992188zm0 0"/><path d="m480.289062 435.796875c-14.265624 28.9375-38.316406 51.890625-67.886718 64.796875-7.929688-11.316406-10.253906-25.632812-6.316406-38.875s13.710937-23.957031 26.535156-29.097656c15.839844-3.824219 32.472656-2.71875 47.667968 3.175781zm0 0"/><path d="m493.792969 361.910156c-11.207031-4.078125-23.503907-4.046875-34.691407.089844-17.65625 8.828125-79.449218 17.652344-79.449218-35.3125 0-40.871094 42.109375-55.4375 61.265625-59.9375 30.046875 23.027344 49.195312 57.484375 52.875 95.160156zm0 0"/><path d="m395.898438 424.585938c-5.890626 6.273437-12.707032 11.601562-20.21875 15.800781-6.015626 5.292969-10.628907 11.996093-13.417969 19.511719-4.5 9.179687-8.296875 25.421874-21.273438 25.597656-8.121093.089844-13.945312-7.589844-16.507812-14.566406-2.421875-7.351563-2.789063-15.226563-1.058594-22.773438 2.03125-10.417969 12.359375-23.039062 6.621094-33.808594-1.699219-2.84375-4.3125-5.023437-7.414063-6.179687-5.726562-1.128907-11.382812-2.574219-16.949218-4.328125-4.789063-2.503906-8.632813-6.5-10.945313-11.386719-3.339844-7.507813-2.496094-16.214844 2.222656-22.941406 4.71875-6.722657 12.621094-10.480469 20.816407-9.894531 27.363281-.355469 108.046874 24.273437 78.125 64.96875zm0 0"/></g><path d="m388.480469 123.652344 17.65625 17.65625-17.65625 17.65625c-40.332031 0-90.378907 40.949218-95.117188 60.484375-1.425781 5.949219-6.75 10.140625-12.867187 10.136719h-48.863282c-6.117187.003906-11.4375-4.1875-12.863281-10.136719-4.738281-19.535157-54.785156-60.484375-95.117187-60.484375l-17.652344-17.65625 17.652344-17.65625h61.792968c26.484376 0 35.3125-17.652344 70.621094-17.652344 35.3125 0 44.140625 17.652344 70.621094 17.652344zm0 0" fill="#bdc3c7"/><path d="m101.585938.0664062c12.1875 0 22.066406 9.8828128 22.066406 22.0703128v39.722656h-44.136719v-39.722656c0-12.1875 9.882813-22.0703128 22.070313-22.0703128zm0 0" fill="#bdc3c7"/><path d="m410.550781.0664062c12.1875 0 22.070313 9.8828128 22.070313 22.0703128v39.722656h-44.140625v-39.722656c0-12.1875 9.882812-22.0703128 22.070312-22.0703128zm0 0" fill="#bdc3c7"/><path d="m123.652344 53.03125v101.519531c0 12.1875-9.878906 22.070313-22.066406 22.070313s-22.070313-9.882813-22.070313-22.070313v-101.519531" fill="#95a5a5"/><path d="m432.621094 53.03125v101.519531c0 12.1875-9.882813 22.070313-22.070313 22.070313s-22.070312-9.882813-22.070312-22.070313v-101.519531" fill="#95a5a5"/><path d="m273.71875 167.792969c0 9.75-7.902344 17.652343-17.65625 17.652343-9.75 0-17.652344-7.902343-17.652344-17.652343s7.902344-17.65625 17.652344-17.65625c9.753906 0 17.65625 7.90625 17.65625 17.65625zm0 0" fill="#7f8c8d"/><path d="m196.128906 68.570312c-10.769531 8.210938-31.957031 16.152344-71.238281 6.53125-7.894531-1.949218-15.675781-4.335937-23.304687-7.148437-7.628907 2.8125-15.410157 5.199219-23.304688 7.148437-39.285156 9.621094-60.46875 1.679688-71.238281-6.53125-6.707031-5.710937-8.894531-15.136718-5.386719-23.21875v-.085937c1.945312-5.679687 7.15625-9.597656 13.152344-9.886719h173.550781c5.996094.289063 11.210937 4.207032 13.152344 9.886719v.085937c3.507812 8.082032 1.324219 17.507813-5.382813 23.21875zm0 0" fill="#2c3e50"/><path d="m101.585938 67.953125c-7.628907 2.8125-15.410157 5.199219-23.304688 7.148437-39.285156 9.621094-60.46875 1.679688-71.238281-6.53125-6.707031-5.710937-8.894531-15.136718-5.386719-23.21875v-.085937c1.945312-5.679687 7.15625-9.597656 13.152344-9.886719h88.011718" fill="#35495e"/><path d="m505.09375 68.570312c-10.769531 8.210938-31.957031 16.152344-71.238281 6.53125-7.894531-1.949218-15.675781-4.335937-23.304688-7.148437-7.628906 2.8125-15.410156 5.199219-23.304687 7.148437-39.285156 9.621094-60.46875 1.679688-71.238282-6.53125-6.707031-5.710937-8.894531-15.136718-5.386718-23.21875v-.085937c1.945312-5.679687 7.15625-9.597656 13.152344-9.886719h173.550781c5.996093.289063 11.210937 4.207032 13.15625 9.886719v.085937c3.503906 8.082032 1.320312 17.507813-5.386719 23.21875zm0 0" fill="#2c3e50"/><path d="m410.542969 67.957031c-7.628907 2.8125-15.410157 5.199219-23.304688 7.148438-39.28125 9.625-60.46875 1.679687-71.238281-6.53125-6.707031-5.710938-8.890625-15.136719-5.386719-23.214844v-.089844c1.945313-5.679687 7.160157-9.597656 13.15625-9.886719h86.78125" fill="#35495e"/></svg>