<svg height="512pt" viewBox="0 0 512.13532 512" width="512pt" xmlns="http://www.w3.org/2000/svg"><path d="m512.066406 282.550781v123.585938l-52.964844-52.964844-75.035156 75.035156-30.894531-30.898437-88.277344 88.277344v-220.691407h229.519531c9.738282.03125 17.625 7.917969 17.652344 17.65625zm0 0" fill="#67b9cc"/><path d="m406.136719 322.273438c0 12.191406-9.878907 22.070312-22.070313 22.070312-12.1875 0-22.066406-9.878906-22.066406-22.070312 0-12.1875 9.878906-22.066407 22.066406-22.066407 12.191406 0 22.070313 9.878907 22.070313 22.066407zm0 0" fill="#f3d55b"/><path d="m238.414062 211.929688h35.308594v61.792968h-35.308594zm0 0" fill="#95a5a5"/><path d="m181.03125 476.757812c-60.910156-.070312-110.273438-49.433593-110.34375-110.34375-.042969-21.441406 6.242188-42.417968 18.0625-60.304687 2.734375-3.941406 8.117188-4.976563 12.117188-2.328125 4.003906 2.644531 5.160156 8 2.605468 12.0625-9.90625 15-15.167968 32.589844-15.128906 50.570312.058594 51.164063 41.523438 92.628907 92.6875 92.6875 17.980469.039063 35.570312-5.222656 50.570312-15.128906 4.0625-2.554687 9.417969-1.398437 12.066407 2.605469 2.644531 4 1.609375 9.382813-2.332031 12.117187-17.886719 11.824219-38.863282 18.105469-60.304688 18.0625zm0 0" fill="#c03a2b"/><path d="m181.03125 441.445312c-41.417969-.046874-74.984375-33.613281-75.03125-75.03125-.054688-15.402343 4.714844-30.433593 13.636719-42.984374 1.796875-2.644532 4.882812-4.109376 8.070312-3.828126 3.183594.277344 5.96875 2.257813 7.28125 5.171876 1.308594 2.917968.941407 6.3125-.960937 8.878906-6.792969 9.570312-10.417969 21.027344-10.375 32.761718.039062 31.671876 25.707031 57.339844 57.378906 57.378907 11.734375.046875 23.191406-3.582031 32.761719-10.371094 2.566406-1.90625 5.960937-2.273437 8.878906-.960937 2.914063 1.308593 4.894531 4.09375 5.171875 7.28125.28125 3.183593-1.183594 6.269531-3.828125 8.066406-12.550781 8.921875-27.582031 13.691406-42.984375 13.636718zm0 0" fill="#e64c3c"/><path d="m181.03125 406.136719c-21.925781-.023438-39.699219-17.796875-39.722656-39.722657-.035156-9.644531 3.511718-18.957031 9.953125-26.132812 2.113281-2.339844 5.316406-3.378906 8.398437-2.71875 3.085938.660156 5.585938 2.914062 6.558594 5.914062s.269531 6.292969-1.84375 8.636719c-3.515625 3.929688-5.441406 9.027344-5.410156 14.300781.015625 12.179688 9.886718 22.054688 22.066406 22.066407 5.273438.03125 10.371094-1.894531 14.300781-5.410157 3.621094-3.265624 9.207031-2.976562 12.472657.644532 3.265624 3.621094 2.980468 9.203125-.640626 12.46875-7.175781 6.441406-16.488281 9.988281-26.132812 9.953125zm0 0" fill="#c03a2b"/><path d="m211.929688 264.894531h88.277343c9.75 0 17.652344 7.90625 17.652344 17.65625v52.964844c0 9.75-7.902344 17.65625-17.652344 17.65625h-88.277343c-9.75 0-17.65625-7.90625-17.65625-17.65625v-52.964844c0-9.75 7.90625-17.65625 17.65625-17.65625zm0 0" fill="#556080"/><path d="m256.066406 309.03125c0 9.753906-7.902344 17.65625-17.652344 17.65625-9.753906 0-17.65625-7.902344-17.65625-17.65625 0-9.75 7.902344-17.652344 17.65625-17.652344 9.75 0 17.652344 7.902344 17.652344 17.652344zm0 0" fill="#2c3e50"/><path d="m291.378906 300.207031h-8.828125c-4.875 0-8.828125-3.953125-8.828125-8.828125s3.953125-8.828125 8.828125-8.828125h8.828125c4.875 0 8.828125 3.953125 8.828125 8.828125s-3.953125 8.828125-8.828125 8.828125zm0 0" fill="#67b9cc"/><g fill="#bdc3c7"><path d="m388.480469 123.652344 17.65625 17.65625-17.65625 17.65625c-40.332031 0-90.378907 40.949218-95.117188 60.484375-1.425781 5.949219-6.75 10.140625-12.867187 10.136719h-48.863282c-6.117187.003906-11.4375-4.1875-12.863281-10.136719-4.738281-19.535157-54.785156-60.484375-95.117187-60.484375l-17.652344-17.65625 17.652344-17.65625h61.792968c26.484376 0 35.3125-17.652344 70.621094-17.652344 35.3125 0 44.140625 17.652344 70.621094 17.652344zm0 0"/><path d="m101.585938.0664062c12.1875 0 22.066406 9.8828128 22.066406 22.0703128v39.722656h-44.136719v-39.722656c0-12.1875 9.882813-22.0703128 22.070313-22.0703128zm0 0"/><path d="m410.550781.0664062c12.1875 0 22.070313 9.8828128 22.070313 22.0703128v39.722656h-44.140625v-39.722656c0-12.1875 9.882812-22.0703128 22.070312-22.0703128zm0 0"/></g><path d="m123.652344 53.03125v101.519531c0 12.1875-9.878906 22.070313-22.066406 22.070313s-22.070313-9.882813-22.070313-22.070313v-101.519531" fill="#95a5a5"/><path d="m432.621094 53.03125v101.519531c0 12.1875-9.882813 22.070313-22.070313 22.070313s-22.070312-9.882813-22.070312-22.070313v-101.519531" fill="#95a5a5"/><path d="m273.71875 167.792969c0 9.75-7.902344 17.652343-17.65625 17.652343-9.75 0-17.652344-7.902343-17.652344-17.652343s7.902344-17.65625 17.652344-17.65625c9.753906 0 17.65625 7.90625 17.65625 17.65625zm0 0" fill="#7f8c8d"/><path d="m196.128906 68.570312c-10.769531 8.210938-31.957031 16.152344-71.238281 6.53125-7.894531-1.949218-15.675781-4.335937-23.304687-7.148437-7.628907 2.8125-15.410157 5.199219-23.304688 7.148437-39.285156 9.621094-60.46875 1.679688-71.238281-6.53125-6.707031-5.710937-8.894531-15.136718-5.386719-23.21875v-.085937c1.945312-5.679687 7.15625-9.597656 13.152344-9.886719h173.550781c5.996094.289063 11.210937 4.207032 13.152344 9.886719v.085937c3.507812 8.082032 1.324219 17.507813-5.382813 23.21875zm0 0" fill="#2c3e50"/><path d="m101.585938 67.953125c-7.628907 2.8125-15.410157 5.199219-23.304688 7.148437-39.285156 9.621094-60.46875 1.679688-71.238281-6.53125-6.707031-5.710937-8.894531-15.136718-5.386719-23.21875v-.085937c1.945312-5.679687 7.15625-9.597656 13.152344-9.886719h88.011718" fill="#35495e"/><path d="m505.09375 68.570312c-10.769531 8.210938-31.957031 16.152344-71.238281 6.53125-7.894531-1.949218-15.675781-4.335937-23.304688-7.148437-7.628906 2.8125-15.410156 5.199219-23.304687 7.148437-39.285156 9.621094-60.46875 1.679688-71.238282-6.53125-6.707031-5.710937-8.894531-15.136718-5.386718-23.21875v-.085937c1.945312-5.679687 7.15625-9.597656 13.152344-9.886719h173.550781c5.996093.289063 11.210937 4.207032 13.15625 9.886719v.085937c3.503906 8.082032 1.320312 17.507813-5.386719 23.21875zm0 0" fill="#2c3e50"/><path d="m410.542969 67.957031c-7.628907 2.8125-15.410157 5.199219-23.304688 7.148438-39.28125 9.625-60.46875 1.679687-71.238281-6.53125-6.707031-5.710938-8.890625-15.136719-5.386719-23.214844v-.089844c1.945313-5.679687 7.160157-9.597656 13.15625-9.886719h86.78125" fill="#35495e"/><path d="m512.066406 388.480469v105.933593c-.027344 9.738282-7.914062 17.625-17.652344 17.652344h-8.828124l-147.863282-70.066406 108.894532-94c6.894531-6.894531 18.074218-6.894531 24.96875 0zm0 0" fill="#4c8056"/><path d="m485.585938 512.066406h-203.035157c-9.738281-.027344-17.625-7.914062-17.65625-17.652344v-26.484374l75.792969-75.792969c6.894531-6.894531 18.074219-6.894531 24.96875 0zm0 0" fill="#7ed09e"/></svg>