<svg height="512pt" viewBox="0 0 512.13532 512" width="512pt" xmlns="http://www.w3.org/2000/svg"><path d="m17.722656 432.621094v-256c.027344-9.742188 7.917969-17.628906 17.65625-17.65625h441.378906c9.738282.027344 17.625 7.914062 17.65625 17.65625v256zm0 0" fill="#35495e"/><path d="m451.597656 194.449219c-55.347656 1.414062-398.566406 19.070312-398.566406 238.171875v-229.519532c.015625-4.867187 3.960938-8.8125 8.828125-8.828124h388.414063c.449218-.027344.898437.03125 1.324218.175781zm0 0" fill="#2fa8cc"/><path d="m459.101562 203.101562v229.519532h-406.070312c0-219.101563 343.21875-236.757813 398.566406-238.171875 1.53125.160156 2.976563.777343 4.148438 1.765625 2.125 1.65625 3.363281 4.195312 3.355468 6.886718zm0 0" fill="#67b9cc"/><path d="m512.066406 441.445312v35.3125c.003906 9.363282-3.714844 18.347657-10.339844 24.96875-6.621093 6.625-15.605468 10.34375-24.96875 10.339844h-441.378906c-9.367187.003906-18.347656-3.714844-24.972656-10.339844-6.621094-6.621093-10.3398438-15.605468-10.3398438-24.96875v-35.3125c.015625-4.867187 3.9609378-8.8125 8.8281248-8.824218h494.34375c4.871094.011718 8.816407 3.957031 8.828125 8.824218zm0 0" fill="#547580"/><g fill="#35495e"><path d="m315.777344 467.929688h-119.417969c-6.6875 0-12.800781-3.777344-15.792969-9.757813l-12.773437-25.550781h176.550781l-12.777344 25.550781c-2.988281 5.980469-9.101562 9.757813-15.789062 9.757813zm0 0"/><path d="m114.828125 467.929688c-.015625 4.871093-3.960937 8.8125-8.828125 8.828124h-105.9335938v-17.65625h105.9335938c4.867188.015626 8.8125 3.957032 8.828125 8.828126zm0 0"/><path d="m150.136719 476.757812h-8.828125c-4.875 0-8.828125-3.953124-8.828125-8.828124s3.953125-8.828126 8.828125-8.828126h8.828125c4.875 0 8.828125 3.953126 8.828125 8.828126s-3.953125 8.828124-8.828125 8.828124zm0 0"/><path d="m512.066406 459.101562v17.65625h-105.929687c-4.875 0-8.828125-3.953124-8.828125-8.828124s3.953125-8.828126 8.828125-8.828126zm0 0"/><path d="m370.828125 476.757812h-8.828125c-4.875 0-8.828125-3.953124-8.828125-8.828124s3.953125-8.828126 8.828125-8.828126h8.828125c4.875 0 8.824219 3.953126 8.824219 8.828126s-3.949219 8.828124-8.824219 8.828124zm0 0"/></g><path d="m203.101562 291.378906h-52.964843c-4.875 0-8.828125-3.953125-8.828125-8.828125s3.953125-8.828125 8.828125-8.828125h52.964843c24.367188-.027344 44.109376-19.773437 44.136719-44.136718 0-4.875 3.953125-8.828126 8.828125-8.828126s8.828125 3.953126 8.828125 8.828126c-.039062 34.109374-27.679687 61.753906-61.792969 61.792968zm0 0" fill="#ecf0f1"/><path d="m211.929688 370.828125c-2.339844 0-4.585938-.929687-6.242188-2.589844l-67-67c-3.375-3.460937-3.339844-8.988281.078125-12.40625 3.417969-3.414062 8.945313-3.449219 12.40625-.078125l67 67.003906c2.523437 2.523438 3.28125 6.320313 1.914063 9.617188-1.367188 3.300781-4.585938 5.453125-8.15625 5.453125zm0 0" fill="#ecf0f1"/><path d="m362 370.828125h-114.761719c-4.875 0-8.824219-3.953125-8.824219-8.828125s3.949219-8.828125 8.824219-8.828125h114.761719c4.875 0 8.828125 3.953125 8.828125 8.828125s-3.953125 8.828125-8.828125 8.828125zm0 0" fill="#ecf0f1"/><path d="m379.652344 353.171875c-4.875 0-8.824219-3.953125-8.824219-8.828125v-44.136719c0-4.875 3.949219-8.828125 8.824219-8.828125s8.828125 3.953125 8.828125 8.828125v44.136719c0 4.875-3.953125 8.828125-8.828125 8.828125zm0 0" fill="#ecf0f1"/><path d="m150.136719 282.550781c0 9.75-7.90625 17.65625-17.65625 17.65625s-17.652344-7.90625-17.652344-17.65625 7.902344-17.65625 17.652344-17.65625 17.65625 7.90625 17.65625 17.65625zm0 0" fill="#f3d55b"/><path d="m247.238281 362c0 9.75-7.902343 17.652344-17.652343 17.652344s-17.65625-7.902344-17.65625-17.652344c0-9.753906 7.90625-17.65625 17.65625-17.65625s17.652343 7.902344 17.652343 17.65625zm0 0" fill="#f3d55b"/><path d="m397.308594 362c0 9.75-7.902344 17.652344-17.65625 17.652344-9.75 0-17.652344-7.902344-17.652344-17.652344 0-9.753906 7.902344-17.65625 17.652344-17.65625 9.753906 0 17.65625 7.902344 17.65625 17.65625zm0 0" fill="#f3d55b"/><path d="m397.308594 282.550781c0 9.75-7.902344 17.65625-17.65625 17.65625-9.75 0-17.652344-7.90625-17.652344-17.65625s7.902344-17.65625 17.652344-17.65625c9.753906 0 17.65625 7.90625 17.65625 17.65625zm0 0" fill="#f3d55b"/><path d="m388.480469 123.652344 17.65625 17.65625-17.65625 17.65625c-40.332031 0-90.378907 40.949218-95.117188 60.484375-1.425781 5.945312-6.746093 10.136719-12.863281 10.136719h-48.859375c-6.117187.003906-11.4375-4.1875-12.863281-10.136719-4.738282-19.535157-54.789063-60.484375-95.125-60.484375l-17.652344-17.65625 17.652344-17.65625h61.792968c26.484376 0 35.3125-17.652344 70.621094-17.652344 35.3125 0 44.140625 17.652344 70.621094 17.652344zm0 0" fill="#bdc3c7"/><path d="m101.585938.0664062c12.1875 0 22.066406 9.8828128 22.066406 22.0703128v39.722656h-44.136719v-39.722656c0-12.1875 9.882813-22.0703128 22.070313-22.0703128zm0 0" fill="#bdc3c7"/><path d="m410.550781.0664062c12.1875 0 22.070313 9.8828128 22.070313 22.0703128v39.722656h-44.140625v-39.722656c0-12.1875 9.882812-22.0703128 22.070312-22.0703128zm0 0" fill="#bdc3c7"/><path d="m123.652344 53.03125v101.519531c0 12.1875-9.878906 22.070313-22.066406 22.070313s-22.070313-9.882813-22.070313-22.070313v-101.519531" fill="#95a5a5"/><path d="m432.621094 53.03125v101.519531c0 12.1875-9.882813 22.070313-22.070313 22.070313s-22.070312-9.882813-22.070312-22.070313v-101.519531" fill="#95a5a5"/><path d="m273.726562 167.792969c0 9.75-7.90625 17.652343-17.65625 17.652343s-17.652343-7.902343-17.652343-17.652343 7.902343-17.65625 17.652343-17.65625 17.65625 7.90625 17.65625 17.65625zm0 0" fill="#7f8c8d"/><path d="m196.128906 68.570312c-10.769531 8.210938-31.957031 16.152344-71.238281 6.53125-7.894531-1.949218-15.675781-4.335937-23.304687-7.148437-7.628907 2.8125-15.410157 5.199219-23.304688 7.148437-39.285156 9.621094-60.46875 1.679688-71.238281-6.53125-6.707031-5.710937-8.894531-15.136718-5.386719-23.21875v-.085937c1.945312-5.679687 7.15625-9.597656 13.152344-9.886719h173.550781c5.996094.289063 11.210937 4.207032 13.152344 9.886719v.085937c3.507812 8.082032 1.324219 17.507813-5.382813 23.21875zm0 0" fill="#2c3e50"/><path d="m101.585938 67.953125c-7.628907 2.8125-15.410157 5.199219-23.304688 7.148437-39.285156 9.621094-60.46875 1.679688-71.238281-6.53125-6.707031-5.710937-8.894531-15.136718-5.386719-23.21875v-.085937c1.945312-5.679687 7.15625-9.597656 13.152344-9.886719h88.011718" fill="#35495e"/><path d="m505.09375 68.570312c-10.769531 8.210938-31.957031 16.152344-71.238281 6.53125-7.894531-1.949218-15.675781-4.335937-23.304688-7.148437-7.628906 2.8125-15.410156 5.199219-23.304687 7.148437-39.285156 9.621094-60.46875 1.679688-71.238282-6.53125-6.707031-5.710937-8.894531-15.136718-5.386718-23.21875v-.085937c1.945312-5.679687 7.15625-9.597656 13.152344-9.886719h173.550781c5.996093.289063 11.210937 4.207032 13.15625 9.886719v.085937c3.503906 8.082032 1.320312 17.507813-5.386719 23.21875zm0 0" fill="#2c3e50"/><path d="m410.550781 67.957031c-7.628906 2.8125-15.410156 5.199219-23.304687 7.148438-39.285156 9.625-60.46875 1.679687-71.238282-6.53125-6.707031-5.710938-8.894531-15.136719-5.386718-23.214844v-.089844c1.945312-5.679687 7.15625-9.597656 13.152344-9.886719h86.777343" fill="#35495e"/></svg>