<svg height="512pt" viewBox="0 -4 512 512" width="512pt" xmlns="http://www.w3.org/2000/svg"><path d="m269.015625 164.882812h86.78125c9.585937 0 17.355469 7.769532 17.355469 17.355469v60.746094c0 9.585937-7.769532 17.355469-17.355469 17.355469h-86.78125c-9.585937 0-17.355469-7.769532-17.355469-17.355469v-60.746094c0-9.585937 7.769532-17.355469 17.355469-17.355469zm0 0" fill="#e4c05c"/><path d="m286.371094 173.558594c-4.789063 0-8.675782-3.882813-8.675782-8.675782v-48.683593c0-4.792969 3.886719-8.679688 8.675782-8.679688 4.792968 0 8.679687 3.886719 8.679687 8.679688v48.683593c0 4.792969-3.886719 8.675782-8.679687 8.675782zm0 0" fill="#f29c1f"/><path d="m338.441406 173.558594c-4.792968 0-8.679687-3.882813-8.679687-8.675782v-48.683593c0-4.792969 3.886719-8.679688 8.679687-8.679688 4.792969 0 8.675782 3.886719 8.675782 8.679688v48.683593c0 4.792969-3.882813 8.675782-8.675782 8.675782zm0 0" fill="#f29c1f"/><path d="m295.050781 164.882812h34.710938v95.457032h-34.710938zm0 0" fill="#af8066"/><path d="m216.949219 199.59375c-4.792969 0-8.679688-3.886719-8.679688-8.679688v-17.0625c-.019531-18.882812 5.585938-37.347656 16.09375-53.039062l9.324219-13.949219c1.683594-2.660156 4.683594-4.199219 7.828125-4.019531 3.148437.183594 5.949219 2.054688 7.316406 4.894531 1.371094 2.835938 1.09375 6.195313-.722656 8.769531l-9.320313 13.949219c-8.59375 12.839844-13.175781 27.941407-13.160156 43.390625v17.066406c0 4.792969-3.886718 8.679688-8.679687 8.679688zm0 0" fill="#f29c1f"/><path d="m407.863281 199.59375c-4.792969 0-8.675781-3.886719-8.675781-8.679688v-17.0625c.011719-15.449218-4.570312-30.550781-13.160156-43.390624l-9.324219-13.949219c-1.816406-2.574219-2.09375-5.933594-.722656-8.769531 1.371093-2.839844 4.171875-4.710938 7.316406-4.894532 3.148437-.179687 6.144531 1.359375 7.832031 4.023438l9.320313 13.945312c10.507812 15.691406 16.113281 34.152344 16.09375 53.035156v17.0625c0 4.792969-3.886719 8.679688-8.679688 8.679688zm0 0" fill="#f29c1f"/><path d="m17.355469 355.796875h43.390625v125.832031c0 11.980469-9.714844 21.691406-21.695313 21.691406s-21.695312-9.710937-21.695312-21.691406zm0 0" fill="#4482c3"/><path d="m86.78125 164.882812c0 23.960938-19.429688 43.386719-43.390625 43.386719-23.964844 0-43.390625-19.425781-43.390625-43.386719 0-23.964843 19.425781-43.390624 43.390625-43.390624 23.960937 0 43.390625 19.425781 43.390625 43.390624zm0 0" fill="#fdd7ad"/><g fill="#285680"><path d="m60.746094 235v-.695312h-17.355469c-19.171875 0-34.710937 15.542968-34.710937 34.710937v95.457031c0 4.792969 3.882812 8.679688 8.675781 8.679688h43.390625v-102.488282"/><path d="m101.011719 260.550781c8.523437-1.972656 15.988281-7.09375 20.898437-14.339843l9.894532-14.589844 21.519531-31.761719c5.320312-7.929687 3.238281-18.667969-4.65625-24.039063-7.898438-5.367187-18.648438-3.351562-24.066407 4.511719l-29.589843 43.613281c-1.230469 1.808594-3.09375 3.089844-5.222657 3.582032l-35.21875 8.171875-23.386718 5.378906c-4.492188 1.035156-8.390625 3.816406-10.832032 7.730469-2.441406 3.914062-3.226562 8.636718-2.175781 13.128906 2.175781 9.328125 11.5 15.132812 20.832031 12.960938l15.5625-3.621094 4.253907-.953125zm0 0"/><path d="m52.066406 269.015625 58.316406 39.660156c7.867188 5.417969 9.878907 16.167969 4.511719 24.0625-5.367187 7.898438-16.105469 9.980469-24.035156 4.660157l-30.113281-20.480469"/></g><path d="m407.863281 104.136719-55.300781 10.054687c-26.554688 4.828125-53.757812 4.828125-80.3125 0l-55.300781-10.054687-17.355469-11.933594 17.355469-14.101563 55.300781-10.054687c26.554688-4.828125 53.757812-4.828125 80.3125 0l55.300781 10.054687 17.355469 13.832032zm0 0" fill="#bdc3c7"/><path d="m347.621094 364.472656c1.605468.003906 3.078125.890625 3.832031 2.304688.753906 1.417968.660156 3.136718-.238281 4.464844l-35.277344 52.136718c-.8125 1.140625-2.128906 1.820313-3.53125 1.820313s-2.714844-.679688-3.53125-1.820313l-35.277344-52.136718c-.898437-1.328126-.988281-3.046876-.238281-4.464844.753906-1.414063 2.226563-2.300782 3.832031-2.304688h17.859375v-52.066406c0-4.792969 3.886719-8.675781 8.679688-8.675781h17.355469c4.792968 0 8.675781 3.882812 8.675781 8.675781v52.066406zm0 0" fill="#e64c3c"/><path d="m199.59375 0c9.585938 0 17.355469 7.769531 17.355469 17.355469v17.355469h-34.710938v-17.355469c0-9.585938 7.769531-17.355469 17.355469-17.355469zm0 0" fill="#bdc3c7"/><path d="m425.21875 0c9.585938 0 17.359375 7.769531 17.359375 17.355469v17.355469h-34.714844v-17.355469c0-9.585938 7.773438-17.355469 17.355469-17.355469zm0 0" fill="#bdc3c7"/><path d="m182.238281 34.710938h34.710938v69.425781h-17.355469c-9.585938 0-17.355469-7.773438-17.355469-17.355469zm0 0" fill="#95a5a5"/><path d="m407.863281 34.710938h34.714844v52.070312c0 9.582031-7.773437 17.355469-17.359375 17.355469h-17.355469zm0 0" fill="#95a5a5"/><path d="m503.320312 43.390625h-156.203124c-4.792969 0-8.675782-3.886719-8.675782-8.679687 0-4.792969 3.882813-8.675782 8.675782-8.675782h156.203124c4.792969 0 8.679688 3.882813 8.679688 8.675782 0 4.792968-3.886719 8.679687-8.679688 8.679687zm0 0" fill="#35495e"/><path d="m277.695312 43.390625h-156.203124c-4.792969 0-8.679688-3.886719-8.679688-8.679687 0-4.792969 3.886719-8.675782 8.679688-8.675782h156.203124c4.792969 0 8.675782 3.882813 8.675782 8.675782 0 4.792968-3.882813 8.679687-8.675782 8.679687zm0 0" fill="#35495e"/></svg>