<svg height="512pt" viewBox="0 0 512.13532 512" width="512pt" xmlns="http://www.w3.org/2000/svg"><path d="m203.367188 197.363281c-50.71875 35.546875-80.5625 93.882813-79.714844 155.808594 0 9.75-7.902344 17.65625-17.652344 17.65625-9.753906 0-17.65625-7.90625-17.65625-17.65625-.851562-69.449219 30.828125-135.292969 85.628906-177.964844l29.128906-7.414062zm0 0" fill="#f29c1f"/><path d="m338.164062 175.207031c54.796876 42.671875 86.480469 108.515625 85.628907 177.964844 0 9.75-7.90625 17.65625-17.65625 17.65625s-17.65625-7.90625-17.65625-17.65625c.511719-61.847656-29.257813-120.035156-79.710938-155.808594l9.089844-20.742187zm0 0" fill="#f29c1f"/><g fill="#bdc3c7"><path d="m388.480469 123.652344 17.65625 17.65625-17.65625 17.65625c-40.332031 0-90.378907 40.949218-95.117188 60.484375-1.425781 5.949219-6.75 10.140625-12.867187 10.136719h-48.863282c-6.117187.003906-11.4375-4.1875-12.863281-10.136719-4.738281-19.535157-54.785156-60.484375-95.117187-60.484375l-17.652344-17.65625 17.652344-17.65625h61.792968c26.484376 0 35.3125-17.652344 70.621094-17.652344 35.3125 0 44.140625 17.652344 70.621094 17.652344zm0 0"/><path d="m101.585938.0664062c12.1875 0 22.066406 9.8828128 22.066406 22.0703128v39.722656h-44.136719v-39.722656c0-12.1875 9.882813-22.0703128 22.070313-22.0703128zm0 0"/><path d="m410.550781.0664062c12.1875 0 22.070313 9.8828128 22.070313 22.0703128v39.722656h-44.140625v-39.722656c0-12.1875 9.882812-22.0703128 22.070312-22.0703128zm0 0"/></g><path d="m123.652344 53.03125v101.519531c0 12.1875-9.878906 22.070313-22.066406 22.070313s-22.070313-9.882813-22.070313-22.070313v-101.519531" fill="#95a5a5"/><path d="m432.621094 53.03125v101.519531c0 12.1875-9.882813 22.070313-22.070313 22.070313s-22.070312-9.882813-22.070312-22.070313v-101.519531" fill="#95a5a5"/><path d="m273.71875 167.792969c0 9.75-7.902344 17.652343-17.65625 17.652343-9.75 0-17.652344-7.902343-17.652344-17.652343s7.902344-17.65625 17.652344-17.65625c9.753906 0 17.65625 7.90625 17.65625 17.65625zm0 0" fill="#7f8c8d"/><path d="m196.128906 68.570312c-10.769531 8.210938-31.957031 16.152344-71.238281 6.53125-7.894531-1.949218-15.675781-4.335937-23.304687-7.148437-7.628907 2.8125-15.410157 5.199219-23.304688 7.148437-39.285156 9.621094-60.46875 1.679688-71.238281-6.53125-6.707031-5.710937-8.894531-15.136718-5.386719-23.21875v-.085937c1.945312-5.679687 7.15625-9.597656 13.152344-9.886719h173.550781c5.996094.289063 11.210937 4.207032 13.152344 9.886719v.085937c3.507812 8.082032 1.324219 17.507813-5.382813 23.21875zm0 0" fill="#2c3e50"/><path d="m101.585938 67.953125c-7.628907 2.8125-15.410157 5.199219-23.304688 7.148437-39.285156 9.621094-60.46875 1.679688-71.238281-6.53125-6.707031-5.710937-8.894531-15.136718-5.386719-23.21875v-.085937c1.945312-5.679687 7.15625-9.597656 13.152344-9.886719h88.011718" fill="#35495e"/><path d="m505.09375 68.570312c-10.769531 8.210938-31.957031 16.152344-71.238281 6.53125-7.894531-1.949218-15.675781-4.335937-23.304688-7.148437-7.628906 2.8125-15.410156 5.199219-23.304687 7.148437-39.285156 9.621094-60.46875 1.679688-71.238282-6.53125-6.707031-5.710937-8.894531-15.136718-5.386718-23.21875v-.085937c1.945312-5.679687 7.15625-9.597656 13.152344-9.886719h173.550781c5.996093.289063 11.210937 4.207032 13.15625 9.886719v.085937c3.503906 8.082032 1.320312 17.507813-5.386719 23.21875zm0 0" fill="#2c3e50"/><path d="m410.542969 67.957031c-7.628907 2.8125-15.410157 5.199219-23.304688 7.148438-39.28125 9.625-60.46875 1.679687-71.238281-6.53125-6.707031-5.710938-8.890625-15.136719-5.386719-23.214844v-.089844c1.945313-5.679687 7.160157-9.597656 13.15625-9.886719h86.78125" fill="#35495e"/><path d="m300.207031 406.136719h44.136719c3.574219.003906 6.792969 2.15625 8.164062 5.457031 1.371094 3.300781.621094 7.101562-1.898437 9.636719l-88.273437 88.277343c-3.46875 3.441407-9.066407 3.441407-12.535157 0l-88.277343-88.277343c-2.519532-2.535157-3.265626-6.335938-1.894532-9.636719 1.367188-3.300781 4.589844-5.453125 8.164063-5.457031h44.136719v-97.105469c0-9.75 7.90625-17.652344 17.65625-17.652344h52.964843c9.75 0 17.65625 7.902344 17.65625 17.652344zm0 0" fill="#e64c3c"/><path d="m247.238281 406.136719c-4.875 0-8.824219-3.953125-8.824219-8.828125v-70.621094c0-4.875 3.949219-8.828125 8.824219-8.828125 4.878907 0 8.828125 3.953125 8.828125 8.828125v70.621094c0 4.875-3.949218 8.828125-8.828125 8.828125zm0 0" fill="#c03a2b"/></svg>