<svg height="512pt" viewBox="0 -4 512 511" width="512pt" xmlns="http://www.w3.org/2000/svg"><path d="m208.269531 226.128906c-4.792969 0-8.675781-3.886718-8.675781-8.679687 0-57.148438 30.882812-80.386719 49.289062-89.148438 2.808594-1.398437 6.152344-1.171875 8.746094.59375 2.59375 1.761719 4.035156 4.789063 3.769532 7.914063-.269532 3.125-2.199219 5.863281-5.054688 7.160156-17.96875 8.558594-39.394531 28.25-39.394531 73.480469 0 4.792969-3.886719 8.679687-8.679688 8.679687zm0 0" fill="#f29c1f"/><path d="m381.832031 226.128906c-4.792969 0-8.679687-3.886718-8.679687-8.679687 0-45.230469-21.425782-64.921875-39.398438-73.480469-2.855468-1.296875-4.789062-4.035156-5.054687-7.160156s1.171875-6.152344 3.765625-7.914063c2.59375-1.765625 5.9375-1.992187 8.746094-.59375 18.417968 8.761719 49.296874 32 49.296874 89.148438 0 4.792969-3.882812 8.679687-8.675781 8.679687zm0 0" fill="#f29c1f"/><path d="m416.542969 69.925781v34.710938h-52.070313c-14.375 0-26.03125 11.65625-26.03125 26.03125 0 9.585937-7.769531 17.359375-17.355468 17.359375h-52.070313c-9.585937 0-17.355469-7.773438-17.355469-17.359375 0-14.375-11.65625-26.03125-26.03125-26.03125h-52.070312v-34.710938zm0 0" fill="#bdc3c7"/><path d="m190.914062 17.855469v86.78125c-.011718 4.785156-3.890624 8.664062-8.675781 8.675781h-17.355469c-4.789062-.011719-8.664062-3.890625-8.679687-8.675781v-86.78125c.027344-9.574219 7.78125-17.328125 17.355469-17.355469 4.605468-.023438 9.023437 1.824219 12.238281 5.121094 3.292969 3.214844 5.140625 7.628906 5.117187 12.234375zm0 0" fill="#95a5a5"/><path d="m260.339844 43.890625h-173.558594c-4.792969 0-8.679688-3.886719-8.679688-8.679687 0-4.792969 3.886719-8.675782 8.679688-8.675782h173.558594c4.792968 0 8.675781 3.882813 8.675781 8.675782 0 4.792968-3.882813 8.679687-8.675781 8.679687zm0 0" fill="#35495e"/><path d="m433.898438 17.855469v86.78125c-.015626 4.785156-3.890626 8.664062-8.679688 8.675781h-17.355469c-4.785156-.011719-8.664062-3.890625-8.675781-8.675781v-86.78125c.027344-9.574219 7.78125-17.328125 17.355469-17.355469 4.605469-.023438 9.019531 1.824219 12.234375 5.121094 3.296875 3.214844 5.144531 7.628906 5.121094 12.234375zm0 0" fill="#95a5a5"/><path d="m503.320312 43.890625h-173.558593c-4.792969 0-8.675781-3.886719-8.675781-8.679687 0-4.792969 3.882812-8.675782 8.675781-8.675782h173.558593c4.792969 0 8.679688 3.882813 8.679688 8.675782 0 4.792968-3.886719 8.679687-8.679688 8.679687zm0 0" fill="#35495e"/><path d="m303.730469 104.636719c0 4.792969-3.886719 8.675781-8.679688 8.675781s-8.679687-3.882812-8.679687-8.675781 3.886718-8.679688 8.679687-8.679688 8.679688 3.886719 8.679688 8.679688zm0 0" fill="#2c3e50"/><path d="m17.355469 200.09375h138.847656c9.585937 0 17.355469 7.769531 17.355469 17.355469v269.015625c0 9.585937-7.769532 17.359375-17.355469 17.359375h-138.847656c-9.585938 0-17.355469-7.773438-17.355469-17.359375v-269.015625c0-9.585938 7.769531-17.355469 17.355469-17.355469zm0 0" fill="#4482c3"/><path d="m173.558594 252.160156s-173.558594 34.714844-173.558594 199.59375v-199.59375zm0 0" fill="#b0d3f0"/><path d="m173.558594 252.160156v199.59375h-173.558594c0-164.878906 173.558594-199.59375 173.558594-199.59375zm0 0" fill="#90bae1"/><path d="m95.457031 477.789062c0 4.792969-3.882812 8.675782-8.675781 8.675782s-8.679688-3.882813-8.679688-8.675782c0-4.792968 3.886719-8.679687 8.679688-8.679687s8.675781 3.886719 8.675781 8.679687zm0 0" fill="#285680"/><path d="m95.457031 234.804688h-17.355469c-4.792968 0-8.679687-3.882813-8.679687-8.675782 0-4.792968 3.886719-8.679687 8.679687-8.679687h17.355469c4.792969 0 8.679688 3.886719 8.679688 8.679687 0 4.792969-3.886719 8.675782-8.679688 8.675782zm0 0" fill="#285680"/><path d="m43.390625 295.550781h-8.679687c-4.792969 0-8.675782-3.886719-8.675782-8.675781 0-4.792969 3.882813-8.679688 8.675782-8.679688h8.679687c4.792969 0 8.675781 3.886719 8.675781 8.679688 0 4.789062-3.882812 8.675781-8.675781 8.675781zm0 0" fill="#e6e7e8"/><path d="m138.847656 295.550781h-60.746094c-4.792968 0-8.679687-3.886719-8.679687-8.675781 0-4.792969 3.886719-8.679688 8.679687-8.679688h60.746094c4.792969 0 8.679688 3.886719 8.679688 8.679688 0 4.789062-3.886719 8.675781-8.679688 8.675781zm0 0" fill="#e6e7e8"/><g fill="#e64c3c"><path d="m86.804688 425.726562c-.925782 0-1.859376-.027343-2.796876-.078124-28.714843-1.53125-50.75-26.050782-49.21875-54.765626 1.527344-28.714843 26.046876-50.753906 54.761719-49.222656 28.714844 1.53125 50.753907 26.046875 49.226563 54.761719-1.511719 27.617187-24.316406 49.25-51.972656 49.304687zm-.042969-86.785156c-18.925781.011719-34.355469 15.183594-34.6875 34.105469-.328125 18.925781 14.5625 34.625 33.480469 35.296875 18.914062.667969 34.878906-13.9375 35.890624-32.839844.996094-19.136718-13.683593-35.46875-32.816406-36.511718-.625-.039063-1.246094-.050782-1.867187-.050782zm0 0"/><path d="m86.78125 434.398438c-4.792969 0-8.679688-3.886719-8.679688-8.679688v-104.132812c0-4.792969 3.886719-8.679688 8.679688-8.679688s8.675781 3.886719 8.675781 8.679688v104.132812c0 4.792969-3.882812 8.679688-8.675781 8.679688zm0 0"/><path d="m138.847656 382.332031h-104.136718c-4.792969 0-8.675782-3.886719-8.675782-8.679687 0-4.792969 3.882813-8.675782 8.675782-8.675782h104.136718c4.792969 0 8.679688 3.882813 8.679688 8.675782 0 4.792968-3.886719 8.679687-8.679688 8.679687zm0 0"/><path d="m244.03125 475.878906c-4.144531.007813-7.714844-2.914062-8.527344-6.976562-.808594-4.0625 1.363282-8.132813 5.191406-9.71875 48.65625-20.125 80.390626-67.589844 80.390626-120.246094 0-52.652344-31.734376-100.121094-80.390626-120.246094-4.371093-1.871094-6.417968-6.914062-4.59375-11.304687 1.824219-4.390625 6.84375-6.496094 11.253907-4.71875 55.132812 22.816406 91.085937 76.605469 91.085937 136.269531 0 59.667969-35.953125 113.457031-91.085937 136.273438-1.054688.441406-2.183594.667968-3.324219.667968zm0 0"/></g><path d="m227.449219 435.875c-4.140625.003906-7.707031-2.917969-8.519531-6.976562-.8125-4.058594 1.355468-8.125 5.175781-9.714844 32.441406-13.460938 53.585937-45.125 53.585937-80.246094s-21.144531-66.785156-53.585937-80.246094c-4.367188-1.878906-6.410157-6.925781-4.578125-11.3125 1.832031-4.390625 6.851562-6.488281 11.261718-4.703125 38.90625 16.152344 64.261719 54.136719 64.261719 96.261719s-25.355469 80.109375-64.261719 96.261719c-1.058593.445312-2.191406.675781-3.339843.675781zm0 0" fill="#c03a2b"/><path d="m210.875 395.78125c-4.140625.007812-7.710938-2.90625-8.527344-6.964844s1.347656-8.128906 5.167969-9.722656c16.21875-6.746094 26.785156-22.589844 26.785156-40.15625s-10.566406-33.410156-26.785156-40.15625c-2.859375-1.199219-4.863281-3.832031-5.253906-6.90625-.394531-3.078125.886719-6.128906 3.355469-8.007812 2.46875-1.875 5.75-2.292969 8.609374-1.09375 22.667969 9.453124 37.429688 31.605468 37.429688 56.164062 0 24.5625-14.761719 46.714844-37.429688 56.167969-1.0625.445312-2.199218.675781-3.351562.675781zm0 0" fill="#e64c3c"/></svg>