<svg height="512pt" viewBox="0 0 512.13532 512" width="512pt" xmlns="http://www.w3.org/2000/svg"><path d="m114.828125 385.390625 17.652344 56.054687-17.652344 56.058594-24.71875 5.558594c-2.597656.515625-5.285156-.15625-7.335937-1.828125-2.046876-1.675781-3.242188-4.175781-3.257813-6.820313v-105.933593c.015625-2.644531 1.210937-5.144531 3.257813-6.820313 2.050781-1.671875 4.738281-2.34375 7.335937-1.828125zm0 0" fill="#95a5a5"/><path d="m167.792969 397.308594 17.652343 44.136718-17.652343 44.140626-52.964844 11.917968v-112.113281zm0 0" fill="#2c3e50"/><path d="m279.992188 344.34375h5.117187l59.234375 35.308594v114.761718c-.027344 9.738282-7.917969 17.625-17.65625 17.652344h-141.242188c-9.738281-.027344-17.625-7.914062-17.652343-17.652344v-118.292968zm0 0" fill="#556080"/><path d="m397.308594 376.121094v100.636718c-.027344 9.738282-7.914063 17.625-17.65625 17.65625h-35.308594v-123.585937zm0 0" fill="#8697cb"/><path d="m256.066406 326.6875c-4.875 0-8.828125-3.953125-8.828125-8.828125v-88.273437c0-4.875 3.953125-8.828126 8.828125-8.828126s8.828125 3.953126 8.828125 8.828126v88.273437c0 4.875-3.953125 8.828125-8.828125 8.828125zm0 0" fill="#95a5a5"/><path d="m282.550781 344.34375c0 34.128906-27.667969 61.792969-61.792969 61.792969-34.128906 0-61.792968-27.664063-61.792968-61.792969s27.664062-61.792969 61.792968-61.792969c34.125 0 61.792969 27.664063 61.792969 61.792969zm0 0" fill="#bdc3c7"/><path d="m247.238281 344.34375c0 14.625-11.855469 26.484375-26.480469 26.484375s-26.484374-11.859375-26.484374-26.484375 11.859374-26.484375 26.484374-26.484375 26.480469 11.859375 26.480469 26.484375zm0 0" fill="#7f8c8d"/><path d="m406.136719 344.34375c0 34.128906-27.664063 61.792969-61.792969 61.792969s-61.792969-27.664063-61.792969-61.792969 27.664063-61.792969 61.792969-61.792969 61.792969 27.664063 61.792969 61.792969zm0 0" fill="#bdc3c7"/><path d="m370.828125 344.34375c0 14.625-11.859375 26.484375-26.484375 26.484375s-26.484375-11.859375-26.484375-26.484375 11.859375-26.484375 26.484375-26.484375 26.484375 11.859375 26.484375 26.484375zm0 0" fill="#7f8c8d"/><path d="m211.929688 485.585938h-8.828126c-4.875 0-8.828124-3.953126-8.828124-8.828126s3.953124-8.828124 8.828124-8.828124h8.828126c4.875 0 8.828124 3.953124 8.828124 8.828124s-3.953124 8.828126-8.828124 8.828126zm0 0" fill="#8697cb"/><path d="m282.550781 485.585938h-35.3125c-4.875 0-8.824219-3.953126-8.824219-8.828126s3.949219-8.828124 8.824219-8.828124h35.3125c4.875 0 8.828125 3.953124 8.828125 8.828124s-3.953125 8.828126-8.828125 8.828126zm0 0" fill="#8697cb"/><g fill="#bdc3c7"><path d="m388.480469 123.652344 17.65625 17.65625-17.65625 17.65625c-40.332031 0-90.378907 40.949218-95.117188 60.484375-1.425781 5.949219-6.75 10.140625-12.867187 10.136719h-48.863282c-6.117187.003906-11.4375-4.1875-12.863281-10.136719-4.738281-19.535157-54.785156-60.484375-95.117187-60.484375l-17.652344-17.65625 17.652344-17.65625h61.792968c26.484376 0 35.3125-17.652344 70.621094-17.652344 35.3125 0 44.140625 17.652344 70.621094 17.652344zm0 0"/><path d="m101.585938.0664062c12.1875 0 22.066406 9.8828128 22.066406 22.0703128v39.722656h-44.136719v-39.722656c0-12.1875 9.882813-22.0703128 22.070313-22.0703128zm0 0"/><path d="m410.550781.0664062c12.1875 0 22.070313 9.8828128 22.070313 22.0703128v39.722656h-44.140625v-39.722656c0-12.1875 9.882812-22.0703128 22.070312-22.0703128zm0 0"/></g><path d="m123.652344 53.03125v101.519531c0 12.1875-9.878906 22.070313-22.066406 22.070313s-22.070313-9.882813-22.070313-22.070313v-101.519531" fill="#95a5a5"/><path d="m432.621094 53.03125v101.519531c0 12.1875-9.882813 22.070313-22.070313 22.070313s-22.070312-9.882813-22.070312-22.070313v-101.519531" fill="#95a5a5"/><path d="m273.71875 167.792969c0 9.75-7.902344 17.652343-17.65625 17.652343-9.75 0-17.652344-7.902343-17.652344-17.652343s7.902344-17.65625 17.652344-17.65625c9.753906 0 17.65625 7.90625 17.65625 17.65625zm0 0" fill="#7f8c8d"/><path d="m196.128906 68.570312c-10.769531 8.210938-31.957031 16.152344-71.238281 6.53125-7.894531-1.949218-15.675781-4.335937-23.304687-7.148437-7.628907 2.8125-15.410157 5.199219-23.304688 7.148437-39.285156 9.621094-60.46875 1.679688-71.238281-6.53125-6.707031-5.710937-8.894531-15.136718-5.386719-23.21875v-.085937c1.945312-5.679687 7.15625-9.597656 13.152344-9.886719h173.550781c5.996094.289063 11.210937 4.207032 13.152344 9.886719v.085937c3.507812 8.082032 1.324219 17.507813-5.382813 23.21875zm0 0" fill="#2c3e50"/><path d="m101.585938 67.953125c-7.628907 2.8125-15.410157 5.199219-23.304688 7.148437-39.285156 9.621094-60.46875 1.679688-71.238281-6.53125-6.707031-5.710937-8.894531-15.136718-5.386719-23.21875v-.085937c1.945312-5.679687 7.15625-9.597656 13.152344-9.886719h88.011718" fill="#35495e"/><path d="m505.09375 68.570312c-10.769531 8.210938-31.957031 16.152344-71.238281 6.53125-7.894531-1.949218-15.675781-4.335937-23.304688-7.148437-7.628906 2.8125-15.410156 5.199219-23.304687 7.148437-39.285156 9.621094-60.46875 1.679688-71.238282-6.53125-6.707031-5.710937-8.894531-15.136718-5.386718-23.21875v-.085937c1.945312-5.679687 7.15625-9.597656 13.152344-9.886719h173.550781c5.996093.289063 11.210937 4.207032 13.15625 9.886719v.085937c3.503906 8.082032 1.320312 17.507813-5.386719 23.21875zm0 0" fill="#2c3e50"/><path d="m410.542969 67.957031c-7.628907 2.8125-15.410157 5.199219-23.304688 7.148438-39.28125 9.625-60.46875 1.679687-71.238281-6.53125-6.707031-5.710938-8.890625-15.136719-5.386719-23.214844v-.089844c1.945313-5.679687 7.160157-9.597656 13.15625-9.886719h86.78125" fill="#35495e"/></svg>