<?xml version="1.0"?>
<svg xmlns="http://www.w3.org/2000/svg" height="512px" viewBox="0 -40 480 480" width="512px"><path d="m184 240h-16c-4.417969 0-8 3.582031-8 8s3.582031 8 8 8h16c4.417969 0 8-3.582031 8-8s-3.582031-8-8-8zm0 0" fill="#D80027"/><path d="m312 240h-16c-4.417969 0-8 3.582031-8 8s3.582031 8 8 8h16c4.417969 0 8-3.582031 8-8s-3.582031-8-8-8zm0 0" fill="#D80027"/><path d="m264 240h-48c-4.417969 0-8 3.582031-8 8s3.582031 8 8 8h48c4.417969 0 8-3.582031 8-8s-3.582031-8-8-8zm0 0" fill="#D80027"/><path d="m472 144h-40v-8c0-13.253906-10.746094-24-24-24s-24 10.746094-24 24v8h-40c-4.417969 0-8 3.582031-8 8v32c0 4.417969 3.582031 8 8 8h40v16h-56v-24c0-4.417969-3.582031-8-8-8h-48v-16c0-17.671875-14.328125-32-32-32s-32 14.328125-32 32v16h-48c-4.417969 0-8 3.582031-8 8v24h-56v-16h40c4.417969 0 8-3.582031 8-8v-32c0-4.417969-3.582031-8-8-8h-40v-8c0-13.253906-10.746094-24-24-24s-24 10.746094-24 24v8h-40c-4.417969 0-8 3.582031-8 8v32c0 4.417969 3.582031 8 8 8h40v16h-40c-4.417969 0-8 3.582031-8 8v32c0 4.035156 3.003906 7.4375 7.007812 7.9375l120.992188 15.125v21.257812l-53.199219 45.601563c-2.476562 2.109375-3.421875 5.511719-2.402343 8.597656l16 48c1.398437 4.199219 5.933593 6.46875 10.128906 5.074219 4.199218-1.398438 6.46875-5.933594 5.074218-10.128906l-14.296874-42.898438 49.65625-42.566406h93.039062v88c0 4.417969 3.582031 8 8 8s8-3.582031 8-8v-88h93.039062l49.671876 42.574219-14.296876 42.898437c-1.394531 4.195313.875 8.730469 5.074219 10.128906 4.195313 1.394532 8.730469-.875 10.128907-5.074218l16-48c1.023437-3.085938.074218-6.488282-2.402344-8.597656l-53.214844-45.609376v-21.257812l120.992188-15.125c4.003906-.5 7.007812-3.902344 7.007812-7.9375v-32c0-4.417969-3.582031-8-8-8h-40v-16h40c4.417969 0 8-3.582031 8-8v-32c0-4.417969-3.582031-8-8-8zm-72-8c0-4.417969 3.582031-8 8-8s8 3.582031 8 8v8h-16zm-176 24c0-8.835938 7.164062-16 16-16s16 7.164062 16 16v16h-32zm-56 32h144v16h-144zm-104-56c0-4.417969 3.582031-8 8-8s8 3.582031 8 8v8h-16zm-48 24h112v16h-112zm48 32h16v16h-16zm-48 48.9375v-16.9375h112v30.9375zm320 47.0625h-72v-8c0-4.417969-3.582031-8-8-8s-8 3.582031-8 8v8h-16v-8c0-4.417969-3.582031-8-8-8s-8 3.582031-8 8v8h-72v-64h192zm128-47.0625-112 14v-30.9375h112zm-48-32.9375h-16v-16h16zm48-32h-112v-16h112zm0 0" fill="#D80027"/><path d="m240 64c-61.535156 0-71.375 36.503906-71.761719 38.054688-1.035156 4.273437 1.566407 8.582031 5.832031 9.648437 4.265626 1.070313 8.589844-1.503906 9.691407-5.757813.070312-.265624 7.054687-25.945312 56.238281-25.945312 48.34375 0 56 24.992188 56.238281 25.945312.894531 3.558594 4.09375 6.054688 7.761719 6.054688.65625.003906 1.308594-.078125 1.945312-.238281 4.289063-1.070313 6.894532-5.417969 5.824219-9.707031-.394531-1.550782-10.234375-38.054688-71.769531-38.054688zm0 0" fill="#D80027"/><path d="m344.238281 97.945312c.894531 3.558594 4.09375 6.054688 7.761719 6.054688.65625.003906 1.308594-.078125 1.945312-.238281 4.289063-1.070313 6.894532-5.417969 5.824219-9.707031-.640625-2.527344-16.707031-62.054688-119.769531-62.054688s-119.128906 59.527344-119.761719 62.054688c-1.035156 4.273437 1.566407 8.582031 5.832031 9.648437 4.265626 1.070313 8.589844-1.503906 9.691407-5.757813.117187-.503906 13.535156-49.945312 104.238281-49.945312 89.832031 0 103.710938 48 104.238281 49.945312zm0 0" fill="#D80027"/><path d="m94.015625 87.71875c4.269531 1.101562 8.625-1.460938 9.738281-5.726562.710938-2.695313 18.742188-65.992188 136.246094-65.992188s135.535156 63.296875 136.238281 65.945312c.894531 3.558594 4.09375 6.054688 7.761719 6.054688.65625.003906 1.308594-.078125 1.945312-.238281 4.289063-1.070313 6.894532-5.417969 5.824219-9.707031-.808593-3.183594-21.027343-78.054688-151.769531-78.054688s-150.960938 74.871094-151.761719 78.054688c-1.050781 4.261718 1.527344 8.574218 5.777344 9.664062zm0 0" fill="#D80027"/></svg>
